REM DIRINDEX 1\2,1\3,1\4,1\5\6,1\5\7,1\8
REM DIRNAME folder01,folder02,folder03,folder04,folder05,folder06,folder07,folder08
TITLE ""
FILE "015 Åy015ÅzUnit1 (0169 relevant_0180 dismiss).mp3" MP3
  TRACK 01 AUDIO
    TITLE "0:"
    INDEX 01 00:00:00
  TRACK 02 AUDIO
    TITLE "2:cjc115_0506"
    INDEX 01 00:00:07
  TRACK 03 AUDIO
    TITLE "0:"
    INDEX 01 00:01:22
  TRACK 04 AUDIO
    TITLE "3:cjc115_0507"
    INDEX 01 00:01:28
  TRACK 05 AUDIO
    TITLE "0:"
    INDEX 01 00:02:57
  TRACK 06 AUDIO
    TITLE "4:cjc115_0508"
    INDEX 01 00:02:65
  TRACK 07 AUDIO
    TITLE "0:"
    INDEX 01 00:07:47
  TRACK 08 AUDIO
    TITLE "2:cjc115_0509"
    INDEX 01 00:08:50
  TRACK 09 AUDIO
    TITLE "0:"
    INDEX 01 00:10:06
  TRACK 10 AUDIO
    TITLE "3:cjc115_0510"
    INDEX 01 00:10:10
  TRACK 11 AUDIO
    TITLE "0:"
    INDEX 01 00:12:38
  TRACK 12 AUDIO
    TITLE "4:cjc115_0511"
    INDEX 01 00:12:46
  TRACK 13 AUDIO
    TITLE "0:"
    INDEX 01 00:16:14
  TRACK 14 AUDIO
    TITLE "2:cjc115_0512"
    INDEX 01 00:17:21
  TRACK 15 AUDIO
    TITLE "0:"
    INDEX 01 00:18:35
  TRACK 16 AUDIO
    TITLE "3:cjc115_0513"
    INDEX 01 00:18:41
  TRACK 17 AUDIO
    TITLE "0:"
    INDEX 01 00:21:04
  TRACK 18 AUDIO
    TITLE "4:cjc115_0514"
    INDEX 01 00:21:13
  TRACK 19 AUDIO
    TITLE "0:"
    INDEX 01 00:25:58
  TRACK 20 AUDIO
    TITLE "2:cjc115_0515"
    INDEX 01 00:26:66
  TRACK 21 AUDIO
    TITLE "0:"
    INDEX 01 00:28:31
  TRACK 22 AUDIO
    TITLE "3:cjc115_0516"
    INDEX 01 00:28:41
  TRACK 23 AUDIO
    TITLE "0:"
    INDEX 01 00:30:42
  TRACK 24 AUDIO
    TITLE "4:cjc115_0517"
    INDEX 01 00:30:50
  TRACK 25 AUDIO
    TITLE "0:"
    INDEX 01 00:36:03
  TRACK 26 AUDIO
    TITLE "2:cjc115_0518"
    INDEX 01 00:37:14
  TRACK 27 AUDIO
    TITLE "0:"
    INDEX 01 00:38:22
  TRACK 28 AUDIO
    TITLE "3:cjc115_0519"
    INDEX 01 00:38:30
  TRACK 29 AUDIO
    TITLE "0:"
    INDEX 01 00:41:12
  TRACK 30 AUDIO
    TITLE "4:cjc115_0520"
    INDEX 01 00:41:28
  TRACK 31 AUDIO
    TITLE "0:"
    INDEX 01 00:45:10
  TRACK 32 AUDIO
    TITLE "2:cjc115_0521"
    INDEX 01 00:46:17
  TRACK 33 AUDIO
    TITLE "0:"
    INDEX 01 00:47:17
  TRACK 34 AUDIO
    TITLE "3:cjc115_0522"
    INDEX 01 00:47:19
  TRACK 35 AUDIO
    TITLE "0:"
    INDEX 01 00:48:32
  TRACK 36 AUDIO
    TITLE "4:cjc115_0523"
    INDEX 01 00:48:53
  TRACK 37 AUDIO
    TITLE "0:"
    INDEX 01 00:51:63
  TRACK 38 AUDIO
    TITLE "2:cjc115_0524"
    INDEX 01 00:52:73
  TRACK 39 AUDIO
    TITLE "0:"
    INDEX 01 00:54:07
  TRACK 40 AUDIO
    TITLE "3:cjc115_0525"
    INDEX 01 00:54:09
  TRACK 41 AUDIO
    TITLE "0:"
    INDEX 01 00:55:24
  TRACK 42 AUDIO
    TITLE "4:cjc115_0526"
    INDEX 01 00:55:34
  TRACK 43 AUDIO
    TITLE "0:"
    INDEX 01 00:59:30
  TRACK 44 AUDIO
    TITLE "2:cjc115_0527"
    INDEX 01 01:00:39
  TRACK 45 AUDIO
    TITLE "0:"
    INDEX 01 01:01:52
  TRACK 46 AUDIO
    TITLE "3:cjc115_0528"
    INDEX 01 01:01:60
  TRACK 47 AUDIO
    TITLE "0:"
    INDEX 01 01:03:71
  TRACK 48 AUDIO
    TITLE "4:cjc115_0529"
    INDEX 01 01:04:01
  TRACK 49 AUDIO
    TITLE "0:"
    INDEX 01 01:07:66
  TRACK 50 AUDIO
    TITLE "2:cjc115_0530"
    INDEX 01 01:08:74
  TRACK 51 AUDIO
    TITLE "0:"
    INDEX 01 01:10:08
  TRACK 52 AUDIO
    TITLE "3:cjc115_0531"
    INDEX 01 01:10:16
  TRACK 53 AUDIO
    TITLE "0:"
    INDEX 01 01:12:54
  TRACK 54 AUDIO
    TITLE "4:cjc115_0532"
    INDEX 01 01:12:64
  TRACK 55 AUDIO
    TITLE "0:"
    INDEX 01 01:16:67
  TRACK 56 AUDIO
    TITLE "2:cjc115_0533"
    INDEX 01 01:18:02
  TRACK 57 AUDIO
    TITLE "0:"
    INDEX 01 01:19:27
  TRACK 58 AUDIO
    TITLE "3:cjc115_0534"
    INDEX 01 01:19:32
  TRACK 59 AUDIO
    TITLE "0:"
    INDEX 01 01:21:00
  TRACK 60 AUDIO
    TITLE "4:cjc115_0535"
    INDEX 01 01:21:06
  TRACK 61 AUDIO
    TITLE "0:"
    INDEX 01 01:23:60
  TRACK 62 AUDIO
    TITLE "2:cjc115_0536"
    INDEX 01 01:24:71
  TRACK 63 AUDIO
    TITLE "0:"
    INDEX 01 01:26:07
  TRACK 64 AUDIO
    TITLE "3:cjc115_0537"
    INDEX 01 01:26:17
  TRACK 65 AUDIO
    TITLE "0:"
    INDEX 01 01:29:19
  TRACK 66 AUDIO
    TITLE "4:cjc115_0538"
    INDEX 01 01:29:29
  TRACK 67 AUDIO
    TITLE "0:"
    INDEX 01 01:32:31
  TRACK 68 AUDIO
    TITLE "2:cjc115_0539"
    INDEX 01 01:33:36
  TRACK 69 AUDIO
    TITLE "0:"
    INDEX 01 01:34:59
  TRACK 70 AUDIO
    TITLE "3:cjc115_0540"
    INDEX 01 01:34:69
  TRACK 71 AUDIO
    TITLE "0:"
    INDEX 01 01:36:74
  TRACK 72 AUDIO
    TITLE "4:cjc115_0541"
    INDEX 01 01:37:05
  TRACK 73 AUDIO
    TITLE "0:"
    INDEX 01 01:40:54
